<svg width="240" height="40" viewBox="0 0 240 40" fill="none" xmlns="http://www.w3.org/2000/svg">
<path d="M235.941 0.5H4C2.067 0.5 0.5 2.067 0.5 4V36C0.5 37.933 2.067 39.5 4 39.5H235.941C237.874 39.5 239.441 37.933 239.441 36V4C239.441 2.067 237.874 0.5 235.941 0.5Z" fill="#4F46E5"/>
<path fill-rule="evenodd" clip-rule="evenodd" d="M0 4C0 1.79086 1.79086 0 4 0H235.941C238.15 0 239.941 1.79086 239.941 4V36C239.941 38.2091 238.15 40 235.941 40H4C1.79086 40 0 38.2091 0 36V4ZM4 1C2.34314 1 1 2.34314 1 4V36C1 37.6569 2.34314 39 4 39H235.941C237.598 39 238.941 37.6569 238.941 36V4C238.941 2.34314 237.598 1 235.941 1H4Z" fill="#4F46E5"/>
<path d="M13.6963 21.4987C13.5921 21.0326 13.5169 20.5606 13.5111 20.0829C13.5053 19.4199 13.6008 18.7656 13.7918 18.1315C13.8121 18.062 13.8352 17.9954 13.8555 17.9288L10.1745 15.0625C9.90534 15.5981 9.68251 16.1569 9.5002 16.7331C9.23686 17.5669 9.07769 18.4181 9.02271 19.2867C8.94747 20.5027 9.05744 21.7043 9.37866 22.8827C9.57544 23.6065 9.84168 24.3014 10.1803 24.9644L13.8526 22.0951C13.7947 21.8983 13.7397 21.7014 13.6963 21.4987Z" fill="#ECBF1C"/>
<path d="M28.7383 10H11.2383C9.16721 10 7.48828 11.6789 7.48828 13.75V26.25C7.48828 28.3211 9.16721 30 11.2383 30H28.7383C30.8093 30 32.4883 28.3211 32.4883 26.25V13.75C32.4883 11.6789 30.8093 10 28.7383 10Z" fill="white"/>
<path d="M18.6258 20.3644L7.48828 13.125C7.48828 11.3991 8.88739 10 10.6133 10H29.3633C31.0892 10 32.4883 11.3991 32.4883 13.125L21.3508 20.3644C20.5223 20.9029 19.4543 20.9029 18.6258 20.3644Z" fill="#4F46E5" fill-opacity="0.5"/>
<path d="M41.9102 25.5002H48.7283V24.2502H43.3192V13.8638H41.9102V25.5002Z" fill="white"/>
<path d="M54.2738 25.682C56.6374 25.682 58.2283 23.8865 58.2283 21.182C58.2283 18.4547 56.6374 16.6593 54.2738 16.6593C51.9102 16.6593 50.3192 18.4547 50.3192 21.182C50.3192 23.8865 51.9102 25.682 54.2738 25.682ZM54.2738 24.4775C52.4783 24.4775 51.6602 22.932 51.6602 21.182C51.6602 19.432 52.4783 17.8638 54.2738 17.8638C56.0692 17.8638 56.8874 19.432 56.8874 21.182C56.8874 22.932 56.0692 24.4775 54.2738 24.4775Z" fill="white"/>
<path d="M63.7979 28.9547C65.8888 28.9547 67.5707 28.0002 67.5707 25.7502V16.7729H66.2752V18.1593H66.1389C65.8434 17.7047 65.2979 16.6593 63.5934 16.6593C61.3888 16.6593 59.8661 18.4093 59.8661 21.0911C59.8661 23.8184 61.457 25.3638 63.5707 25.3638C65.2752 25.3638 65.8207 24.3638 66.1161 23.8865H66.2298V25.6593C66.2298 27.1138 65.207 27.7729 63.7979 27.7729C62.2127 27.7729 61.6559 26.9377 61.2979 26.4547L60.2298 27.2047C60.7752 28.1195 61.8491 28.9547 63.7979 28.9547ZM63.7525 24.1593C62.0707 24.1593 61.207 22.8865 61.207 21.0684C61.207 19.2956 62.0479 17.8638 63.7525 17.8638C65.3889 17.8638 66.2525 19.182 66.2525 21.0684C66.2525 23.0002 65.3661 24.1593 63.7525 24.1593Z" fill="white"/>
<path d="M70.0252 25.5002H71.3661V16.7729H70.0252V25.5002ZM70.707 15.3184C71.2298 15.3184 71.6616 14.9093 71.6616 14.4093C71.6616 13.9093 71.2298 13.5002 70.707 13.5002C70.1843 13.5002 69.7525 13.9093 69.7525 14.4093C69.7525 14.9093 70.1843 15.3184 70.707 15.3184Z" fill="white"/>
<path d="M75.163 20.2502C75.163 18.7275 76.1062 17.8638 77.3903 17.8638C78.6346 17.8638 79.3903 18.6763 79.3903 20.0456V25.5002H80.7312V19.9547C80.7312 17.7275 79.5437 16.6593 77.7766 16.6593C76.4585 16.6593 75.6403 17.2502 75.2312 18.1365H75.1175V16.7729H73.8221V25.5002H75.163V20.2502Z" fill="white"/>
<path d="M87.2951 13.3184H86.0678L82.3178 27.2502H83.5451L87.2951 13.3184Z" fill="white"/>
<path d="M89.0664 25.5002H90.4755V20.9547H93.021C93.1232 20.9547 93.2198 20.9547 93.3164 20.949L95.771 25.5002H97.4073L94.7766 20.6934C96.2596 20.1877 96.9528 18.9775 96.9528 17.432C96.9528 15.3752 95.7255 13.8638 92.9982 13.8638H89.0664V25.5002ZM90.4755 19.682V15.1138H92.9528C94.8391 15.1138 95.5664 16.0343 95.5664 17.432C95.5664 18.8297 94.8391 19.682 92.9755 19.682H90.4755Z" fill="white"/>
<path d="M102.684 25.682C104.457 25.682 105.752 24.7956 106.162 23.4775L104.866 23.1138C104.525 24.0229 103.735 24.4775 102.684 24.4775C101.11 24.4775 100.025 23.4604 99.9627 21.5911H106.298V21.0229C106.298 17.7729 104.366 16.6593 102.548 16.6593C100.184 16.6593 98.6161 18.5229 98.6161 21.2047C98.6161 23.8865 100.162 25.682 102.684 25.682ZM99.9627 20.432C100.054 19.074 101.014 17.8638 102.548 17.8638C104.002 17.8638 104.934 18.9547 104.934 20.432H99.9627Z" fill="white"/>
<path d="M111.86 28.9547C113.951 28.9547 115.633 28.0002 115.633 25.7502V16.7729H114.338V18.1593H114.201C113.906 17.7047 113.36 16.6593 111.656 16.6593C109.451 16.6593 107.929 18.4093 107.929 21.0911C107.929 23.8184 109.52 25.3638 111.633 25.3638C113.338 25.3638 113.883 24.3638 114.179 23.8865H114.292V25.6593C114.292 27.1138 113.27 27.7729 111.86 27.7729C110.275 27.7729 109.718 26.9377 109.36 26.4547L108.292 27.2047C108.838 28.1195 109.912 28.9547 111.86 28.9547ZM111.815 24.1593C110.133 24.1593 109.27 22.8865 109.27 21.0684C109.27 19.2956 110.11 17.8638 111.815 17.8638C113.451 17.8638 114.315 19.182 114.315 21.0684C114.315 23.0002 113.429 24.1593 111.815 24.1593Z" fill="white"/>
<path d="M118.088 25.5002H119.429V16.7729H118.088V25.5002ZM118.77 15.3184C119.292 15.3184 119.724 14.9093 119.724 14.4093C119.724 13.9093 119.292 13.5002 118.77 13.5002C118.247 13.5002 117.815 13.9093 117.815 14.4093C117.815 14.9093 118.247 15.3184 118.77 15.3184Z" fill="white"/>
<path d="M128.066 18.7275C127.646 17.4888 126.703 16.6593 124.976 16.6593C123.135 16.6593 121.771 17.7047 121.771 19.182C121.771 20.3865 122.487 21.1934 124.089 21.5684L125.544 21.9093C126.424 22.1138 126.839 22.5343 126.839 23.1365C126.839 23.8865 126.044 24.5002 124.794 24.5002C123.697 24.5002 123.01 24.0286 122.771 23.0911L121.498 23.4093C121.811 24.8922 123.032 25.682 124.816 25.682C126.845 25.682 128.226 24.574 128.226 23.0684C128.226 21.8525 127.464 21.0854 125.907 20.7047L124.612 20.3865C123.578 20.1309 123.112 19.7843 123.112 19.1138C123.112 18.3638 123.907 17.8184 124.976 17.8184C126.146 17.8184 126.629 18.4661 126.862 19.0684L128.066 18.7275Z" fill="white"/>
<path d="M134.039 16.7729H132.176V14.682H130.835V16.7729H129.517V17.9093H130.835V23.3638C130.835 24.8865 132.062 25.6138 133.199 25.6138C133.699 25.6138 134.017 25.5229 134.199 25.4547L133.926 24.2502C133.812 24.2729 133.63 24.3184 133.335 24.3184C132.744 24.3184 132.176 24.1365 132.176 23.0002V17.9093H134.039V16.7729Z" fill="white"/>
<path d="M139.622 25.682C141.395 25.682 142.69 24.7956 143.099 23.4775L141.804 23.1138C141.463 24.0229 140.673 24.4775 139.622 24.4775C138.048 24.4775 136.963 23.4604 136.9 21.5911H143.235V21.0229C143.235 17.7729 141.304 16.6593 139.485 16.6593C137.122 16.6593 135.554 18.5229 135.554 21.2047C135.554 23.8865 137.099 25.682 139.622 25.682ZM136.9 20.432C136.991 19.074 137.951 17.8638 139.485 17.8638C140.94 17.8638 141.872 18.9547 141.872 20.432H136.9Z" fill="white"/>
<path d="M145.275 25.5002H146.616V19.9775C146.616 18.7956 147.548 17.932 148.821 17.932C149.179 17.932 149.548 18.0002 149.639 18.0229V16.6593C149.485 16.6479 149.133 16.6365 148.934 16.6365C147.889 16.6365 146.98 17.2275 146.662 18.0911H146.571V16.7729H145.275V25.5002Z" fill="white"/>
<path d="M157.706 25.5002H159.024L160.933 18.7956H161.069L162.978 25.5002H164.297L166.956 16.7729H165.547L163.66 23.432H163.569L161.728 16.7729H160.297L158.433 23.4547H158.342L156.456 16.7729H155.047L157.706 25.5002Z" fill="white"/>
<path d="M168.728 25.5002H170.069V16.7729H168.728V25.5002ZM169.41 15.3184C169.933 15.3184 170.365 14.9093 170.365 14.4093C170.365 13.9093 169.933 13.5002 169.41 13.5002C168.887 13.5002 168.456 13.9093 168.456 14.4093C168.456 14.9093 168.887 15.3184 169.41 15.3184Z" fill="white"/>
<path d="M176.321 16.7729H174.457V14.682H173.116V16.7729H171.798V17.9093H173.116V23.3638C173.116 24.8865 174.343 25.6138 175.48 25.6138C175.98 25.6138 176.298 25.5229 176.48 25.4547L176.207 24.2502C176.093 24.2729 175.912 24.3184 175.616 24.3184C175.025 24.3184 174.457 24.1365 174.457 23.0002V17.9093H176.321V16.7729Z" fill="white"/>
<path d="M179.866 20.2502C179.866 18.7275 180.838 17.8638 182.162 17.8638C183.423 17.8638 184.184 18.6593 184.184 20.0456V25.5002H185.525V19.9547C185.525 17.7104 184.332 16.6593 182.548 16.6593C181.173 16.6593 180.389 17.2331 179.98 18.1365H179.866V13.8638H178.525V25.5002H179.866V20.2502Z" fill="white"/>
<path d="M192.66 25.5002H199.774V24.2502H194.069V20.2956H199.319V19.0456H194.069V15.1138H199.683V13.8638H192.66V25.5002Z" fill="white"/>
<path d="M202.041 25.5002H203.382V20.0456C203.382 18.7672 204.314 17.8638 205.359 17.8638C206.376 17.8638 207.086 18.5286 207.086 19.5229V25.5002H208.45V19.8184C208.45 18.6934 209.154 17.8638 210.382 17.8638C211.336 17.8638 212.154 18.3695 212.154 19.6593V25.5002H213.495V19.6593C213.495 17.6081 212.393 16.6593 210.836 16.6593C209.586 16.6593 208.672 17.2331 208.223 18.1365H208.132C207.7 17.2047 206.939 16.6593 205.791 16.6593C204.654 16.6593 203.814 17.2047 203.45 18.1365H203.336V16.7729H202.041V25.5002Z" fill="white"/>
<path d="M218.515 25.7047C220.038 25.7047 220.833 24.8865 221.106 24.3184H221.174V25.5002H222.515V19.7502C222.515 16.9775 220.402 16.6593 219.288 16.6593C217.97 16.6593 216.47 17.1138 215.788 18.7047L217.061 19.1593C217.356 18.5229 218.055 17.8411 219.333 17.8411C220.566 17.8411 221.174 18.4945 221.174 19.6138V19.6593C221.174 20.307 220.515 20.2502 218.924 20.4547C217.305 20.665 215.538 21.0229 215.538 23.0229C215.538 24.7275 216.856 25.7047 218.515 25.7047ZM218.72 24.5002C217.652 24.5002 216.879 24.0229 216.879 23.0911C216.879 22.0684 217.811 21.7502 218.856 21.6138C219.424 21.5456 220.947 21.3865 221.174 21.1138V22.3411C221.174 23.432 220.311 24.5002 218.72 24.5002Z" fill="white"/>
<path d="M224.963 25.5002H226.304V16.7729H224.963V25.5002ZM225.645 15.3184C226.167 15.3184 226.599 14.9093 226.599 14.4093C226.599 13.9093 226.167 13.5002 225.645 13.5002C225.122 13.5002 224.69 13.9093 224.69 14.4093C224.69 14.9093 225.122 15.3184 225.645 15.3184Z" fill="white"/>
<path d="M230.1 13.8638H228.76V25.5002H230.1V13.8638Z" fill="white"/>
</svg>
