<svg width="240" height="40" viewBox="0 0 240 40" fill="none" xmlns="http://www.w3.org/2000/svg">
<path d="M235.941 0H4C1.79086 0 0 1.79086 0 4V36C0 38.2091 1.79086 40 4 40H235.941C238.15 40 239.941 38.2091 239.941 36V4C239.941 1.79086 238.15 0 235.941 0Z" fill="#3C5898"/>
<path d="M13.0156 11H26.9844C27.5469 11 28.0156 11.2031 28.3906 11.6094C28.7969 11.9844 29 12.4531 29 13.0156V26.9844C29 27.5469 28.7969 28.0312 28.3906 28.4375C28.0156 28.8125 27.5469 29 26.9844 29H13.0156C12.4531 29 11.9688 28.8125 11.5625 28.4375C11.1875 28.0312 11 27.5469 11 26.9844V13.0156C11 12.4531 11.1875 11.9844 11.5625 11.6094C11.9688 11.2031 12.4531 11 13.0156 11ZM26 13.0156H23.5156C22.5156 13.0156 21.6875 13.3594 21.0312 14.0469C20.375 14.7031 20.0312 15.5156 20 16.4844V19.0156H17.9844V22.0156H20V29H23V22.0156H26V19.0156H23V17C23 16.7188 23.0938 16.4844 23.2812 16.2969C23.4688 16.1094 23.7031 16.0156 23.9844 16.0156H26V13.0156Z" fill="white"/>
<path d="M41.438 26.0018H49.3449V24.3015H43.4131V12.9109H41.438V26.0018Z" fill="white"/>
<path d="M55.5804 26.1999C58.3481 26.1999 60.1571 24.1737 60.1571 21.1374C60.1571 18.082 58.3481 16.0558 55.5804 16.0558C52.8126 16.0558 51.0037 18.082 51.0037 21.1374C51.0037 24.1737 52.8126 26.1999 55.5804 26.1999ZM55.5868 24.5955C53.7778 24.5955 52.9341 23.0167 52.9341 21.131C52.9341 19.2518 53.7778 17.6538 55.5868 17.6538C57.3829 17.6538 58.2267 19.2518 58.2267 21.131C58.2267 23.0167 57.3829 24.5955 55.5868 24.5955Z" fill="white"/>
<path d="M66.4069 29.8881C68.9062 29.8881 70.8366 28.744 70.8366 26.2191V16.1836H68.9637V17.7752H68.8231C68.4843 17.168 67.8068 16.0558 65.9786 16.0558C63.6072 16.0558 61.8622 17.9286 61.8622 21.0543C61.8622 24.1864 63.6456 25.8548 65.9659 25.8548C67.7684 25.8548 68.4652 24.8384 68.8103 24.212H68.9318V26.1424C68.9318 27.6829 67.8771 28.3477 66.4261 28.3477C64.8345 28.3477 64.2144 27.5487 63.8757 26.9862L62.2329 27.6637C62.7507 28.8654 64.061 29.8881 66.4069 29.8881ZM66.3877 24.2695C64.6811 24.2695 63.7926 22.9592 63.7926 21.0288C63.7926 19.1431 64.6619 17.6793 66.3877 17.6793C68.0561 17.6793 68.951 19.0408 68.951 21.0288C68.951 23.055 68.0369 24.2695 66.3877 24.2695Z" fill="white"/>
<path d="M78.1635 26.0018H80.0747V16.1836H78.1635V26.0018ZM79.1287 14.6687C79.7871 14.6687 80.3368 14.1573 80.3368 13.5309C80.3368 12.9045 79.7871 12.3867 79.1287 12.3867C78.4639 12.3867 77.9206 12.9045 77.9206 13.5309C77.9206 14.1573 78.4639 14.6687 79.1287 14.6687Z" fill="white"/>
<path d="M84.5571 20.1722C84.5571 18.6062 85.5159 17.7113 86.8455 17.7113C88.1431 17.7113 88.9293 18.5614 88.9293 19.9869V26.0018H90.8405V19.7567C90.8405 17.3278 89.5046 16.0558 87.4975 16.0558C86.0209 16.0558 85.0557 16.7397 84.6019 17.7816H84.4804V16.1836H82.6459V26.0018H84.5571V20.1722Z" fill="white"/>
<path d="M100.296 26.0018H102.239L104.233 18.913H104.38L106.375 26.0018H108.324L111.207 16.1836H109.232L107.321 23.3619H107.225L105.307 16.1836H103.332L101.402 23.3938H101.306L99.3819 16.1836H97.4067L100.296 26.0018Z" fill="white"/>
<path d="M113.021 26.0018H114.932V16.1836H113.021V26.0018ZM113.986 14.6687C114.644 14.6687 115.194 14.1573 115.194 13.5309C115.194 12.9045 114.644 12.3867 113.986 12.3867C113.321 12.3867 112.778 12.9045 112.778 13.5309C112.778 14.1573 113.321 14.6687 113.986 14.6687Z" fill="white"/>
<path d="M122.086 16.1836H120.073V13.8313H118.162V16.1836H116.724V17.7177H118.162V23.5153C118.155 25.2987 119.517 26.1616 121.025 26.1296C121.633 26.1232 122.042 26.0082 122.265 25.9251L121.92 24.3462C121.792 24.3718 121.556 24.4293 121.249 24.4293C120.629 24.4293 120.073 24.2248 120.073 23.119V17.7177H122.086V16.1836Z" fill="white"/>
<path d="M126.323 20.1722C126.323 18.6062 127.314 17.7113 128.675 17.7113C129.992 17.7113 130.778 18.5487 130.778 19.9869V26.0018H132.689V19.7567C132.689 17.3086 131.347 16.0558 129.327 16.0558C127.799 16.0558 126.879 16.7205 126.419 17.7816H126.297V12.9109H124.412V26.0018H126.323V20.1722Z" fill="white"/>
<path d="M140.157 26.0018H142.132V20.2937H147.693V18.5998H142.132V14.6112H148.275V12.9109H140.157V26.0018Z" fill="white"/>
<path d="M153.372 26.2191C154.996 26.2191 155.91 25.3945 156.274 24.6594H156.351V26.0018H158.217V19.4819C158.217 16.6246 155.967 16.0558 154.408 16.0558C152.631 16.0558 150.994 16.7717 150.355 18.5614L152.151 18.9705C152.433 18.2738 153.149 17.6026 154.433 17.6026C155.667 17.6026 156.3 18.2482 156.3 19.3604V19.4052C156.3 20.1019 155.584 20.0891 153.82 20.2937C151.96 20.511 150.055 20.9968 150.055 23.2276C150.055 25.158 151.506 26.2191 153.372 26.2191ZM153.788 24.685C152.708 24.685 151.928 24.1992 151.928 23.2532C151.928 22.2305 152.835 21.8661 153.941 21.7191C154.561 21.636 156.031 21.4698 156.306 21.195V22.4606C156.306 23.6239 155.379 24.685 153.788 24.685Z" fill="white"/>
<path d="M164.899 26.1999C167.219 26.1999 168.721 24.8065 168.932 22.8952H167.072C166.829 23.9563 166.005 24.5827 164.912 24.5827C163.294 24.5827 162.252 23.234 162.252 21.0927C162.252 18.9897 163.314 17.6665 164.912 17.6665C166.126 17.6665 166.867 18.4336 167.072 19.354H168.932C168.728 17.3725 167.11 16.0558 164.88 16.0558C162.112 16.0558 160.322 18.1396 160.322 21.1374C160.322 24.0969 162.048 26.1999 164.899 26.1999Z" fill="white"/>
<path d="M175.208 26.1999C177.349 26.1999 178.864 25.1452 179.298 23.5472L177.489 23.2212C177.144 24.1481 176.313 24.6211 175.227 24.6211C173.59 24.6211 172.491 23.56 172.44 21.668H179.42V20.9904C179.42 17.4428 177.298 16.0558 175.073 16.0558C172.337 16.0558 170.535 18.1396 170.535 21.1566C170.535 24.2056 172.312 26.1999 175.208 26.1999ZM172.446 20.2362C172.523 18.8427 173.533 17.6346 175.086 17.6346C176.569 17.6346 177.541 18.734 177.547 20.2362H172.446Z" fill="white"/>
<path d="M181.694 26.0018H183.56V24.4741H183.72C184.065 25.1005 184.768 26.1935 186.558 26.1935C188.936 26.1935 190.662 24.2887 190.662 21.1119C190.662 17.9286 188.91 16.0558 186.539 16.0558C184.717 16.0558 184.059 17.168 183.72 17.7752H183.605V12.9109H181.694V26.0018ZM183.567 21.0927C183.567 19.0408 184.462 17.6793 186.13 17.6793C187.862 17.6793 188.731 19.1431 188.731 21.0927C188.731 23.0614 187.837 24.5636 186.13 24.5636C184.487 24.5636 183.567 23.1573 183.567 21.0927Z" fill="white"/>
<path d="M196.944 26.1999C199.711 26.1999 201.52 24.1737 201.52 21.1374C201.52 18.082 199.711 16.0558 196.944 16.0558C194.176 16.0558 192.367 18.082 192.367 21.1374C192.367 24.1737 194.176 26.1999 196.944 26.1999ZM196.95 24.5955C195.141 24.5955 194.297 23.0167 194.297 21.131C194.297 19.2518 195.141 17.6538 196.95 17.6538C198.746 17.6538 199.59 19.2518 199.59 21.131C199.59 23.0167 198.746 24.5955 196.95 24.5955Z" fill="white"/>
<path d="M207.789 26.1999C210.557 26.1999 212.366 24.1737 212.366 21.1374C212.366 18.082 210.557 16.0558 207.789 16.0558C205.022 16.0558 203.213 18.082 203.213 21.1374C203.213 24.1737 205.022 26.1999 207.789 26.1999ZM207.796 24.5955C205.987 24.5955 205.143 23.0167 205.143 21.131C205.143 19.2518 205.987 17.6538 207.796 17.6538C209.592 17.6538 210.436 19.2518 210.436 21.131C210.436 23.0167 209.592 24.5955 207.796 24.5955Z" fill="white"/>
<path d="M214.499 26.0018H216.411V22.5181L217.363 21.5657L220.7 26.0018H223.046L218.801 20.396L222.777 16.1836H220.489L216.577 20.3384H216.411V12.9109H214.499V26.0018Z" fill="white"/>
</svg>
