<svg width="240" height="40" viewBox="0 0 240 40" fill="none" xmlns="http://www.w3.org/2000/svg">
<path d="M235.941 0.5H4C2.067 0.5 0.5 2.067 0.5 4V36C0.5 37.933 2.067 39.5 4 39.5H235.941C237.874 39.5 239.441 37.933 239.441 36V4C239.441 2.067 237.874 0.5 235.941 0.5Z" fill="white" stroke="#5468FF"/>
<path d="M15.8579 14.9508C16.5351 14.3659 17.2991 13.9374 18.1528 13.6739C19.2061 13.3497 20.274 13.3149 21.3534 13.535C21.9958 13.6652 22.5978 13.9055 23.1621 14.2443C23.5035 14.447 23.8161 14.6873 24.1084 14.9565C24.1865 15.0289 24.2415 15.0347 24.3225 14.9508C24.6987 14.5628 25.0836 14.1835 25.4627 13.8013C26.0617 13.202 26.6608 12.5998 27.2656 12.0033C27.3495 11.9194 27.364 11.8644 27.2627 11.7891C27.1643 11.7138 27.0775 11.6212 26.982 11.5401C26.1341 10.8221 25.2022 10.2401 24.172 9.81449C23.0492 9.34256 21.8743 9.08777 20.6618 9.01828C19.4174 8.9488 18.1875 9.07619 16.9865 9.42073C16.237 9.63788 15.5164 9.92451 14.8306 10.2922C13.8901 10.8018 13.0306 11.4272 12.2724 12.1857C11.5721 12.8864 10.9615 13.6537 10.4724 14.5107C10.3682 14.6931 10.2699 14.8755 10.1772 15.0637L13.8583 17.93C14.246 16.7574 14.9116 15.7643 15.8579 14.9508Z" fill="#DA4030"/>
<path d="M21.1456 26.5408C20.4858 26.6393 19.8289 26.6538 19.172 26.5699C18.0694 26.428 17.0739 26.0052 16.1855 25.3393C15.4562 24.7921 14.863 24.1176 14.4058 23.3271C14.18 22.9334 13.9948 22.5222 13.8559 22.0938L10.1836 24.9629C10.3225 25.2351 10.4701 25.5014 10.6321 25.7649C11.2948 26.8362 12.1138 27.7685 13.0919 28.5618C13.7691 29.112 14.4955 29.581 15.2884 29.9458C16.0003 30.2759 16.7353 30.545 17.508 30.7188C18.0926 30.852 18.6829 30.9534 19.279 30.9823C20.4684 31.0373 21.6462 30.9736 22.8096 30.6928C23.3536 30.5596 23.889 30.3975 24.4041 30.1832C25.116 29.885 25.7903 29.5144 26.4182 29.0569C26.725 28.834 27.0173 28.5907 27.2893 28.333L23.7356 25.5681C22.9485 26.0864 22.0832 26.4048 21.1456 26.5408Z" fill="#51AC47"/>
<path d="M30.3541 18.1468C30.3136 17.9297 30.3165 17.9297 30.0995 17.9297C28.4558 17.9297 26.8091 17.9297 25.1654 17.9297C23.5159 17.9297 21.8664 17.9297 20.2169 17.9297C19.9941 17.9297 19.9883 17.9355 19.9883 18.1555C19.9883 19.4208 19.9883 20.6831 19.9883 21.9484C19.9883 22.1887 19.9883 22.1887 20.2256 22.1887C22.0574 22.1887 23.8921 22.1887 25.7239 22.1887C25.9265 22.1887 25.9352 22.1973 25.8918 22.3942C25.7847 22.8922 25.6082 23.3642 25.3622 23.81C24.9773 24.5049 24.4593 25.084 23.7995 25.5269C23.7793 25.5414 23.759 25.553 23.7387 25.5675L27.2924 28.3325C27.631 28.014 27.9435 27.6695 28.2358 27.3047C28.9969 26.355 29.5496 25.2895 29.9316 24.1343C30.2702 23.1065 30.4554 22.0497 30.5133 20.9726C30.5625 20.0288 30.5249 19.082 30.3541 18.1468Z" fill="#6076B9"/>
<path d="M13.6963 21.4987C13.5921 21.0326 13.5169 20.5606 13.5111 20.0829C13.5053 19.4199 13.6008 18.7656 13.7918 18.1315C13.8121 18.062 13.8352 17.9954 13.8555 17.9288L10.1745 15.0625C9.90534 15.5981 9.68251 16.1569 9.5002 16.7331C9.23686 17.5669 9.07769 18.4181 9.02271 19.2867C8.94747 20.5027 9.05744 21.7043 9.37866 22.8827C9.57544 23.6065 9.84168 24.3014 10.1803 24.9644L13.8526 22.0951C13.7947 21.8983 13.7397 21.7014 13.6963 21.4987Z" fill="#ECBF1C"/>
<path d="M54.438 25.0018H62.3449V23.3015H56.4131V11.9109H54.438V25.0018Z" fill="#3F3D56"/>
<path d="M68.5804 25.1999C71.3481 25.1999 73.1571 23.1737 73.1571 20.1374C73.1571 17.082 71.3481 15.0558 68.5804 15.0558C65.8126 15.0558 64.0037 17.082 64.0037 20.1374C64.0037 23.1737 65.8126 25.1999 68.5804 25.1999ZM68.5868 23.5955C66.7778 23.5955 65.9341 22.0167 65.9341 20.131C65.9341 18.2518 66.7778 16.6538 68.5868 16.6538C70.3829 16.6538 71.2267 18.2518 71.2267 20.131C71.2267 22.0167 70.3829 23.5955 68.5868 23.5955Z" fill="#3F3D56"/>
<path d="M79.4069 28.8881C81.9062 28.8881 83.8366 27.744 83.8366 25.2191V15.1836H81.9637V16.7752H81.8231C81.4843 16.168 80.8068 15.0558 78.9786 15.0558C76.6072 15.0558 74.8622 16.9286 74.8622 20.0543C74.8622 23.1864 76.6456 24.8548 78.9659 24.8548C80.7684 24.8548 81.4652 23.8384 81.8103 23.212H81.9318V25.1424C81.9318 26.6829 80.8771 27.3477 79.4261 27.3477C77.8345 27.3477 77.2144 26.5487 76.8757 25.9862L75.2329 26.6637C75.7507 27.8654 77.061 28.8881 79.4069 28.8881ZM79.3877 23.2695C77.6811 23.2695 76.7926 21.9592 76.7926 20.0288C76.7926 18.1431 77.6619 16.6793 79.3877 16.6793C81.0561 16.6793 81.951 18.0408 81.951 20.0288C81.951 22.055 81.0369 23.2695 79.3877 23.2695Z" fill="#3F3D56"/>
<path d="M91.1635 25.0018H93.0747V15.1836H91.1635V25.0018ZM92.1287 13.6687C92.7871 13.6687 93.3368 13.1573 93.3368 12.5309C93.3368 11.9045 92.7871 11.3867 92.1287 11.3867C91.4639 11.3867 90.9206 11.9045 90.9206 12.5309C90.9206 13.1573 91.4639 13.6687 92.1287 13.6687Z" fill="#3F3D56"/>
<path d="M97.5571 19.1722C97.5571 17.6062 98.5159 16.7113 99.8455 16.7113C101.143 16.7113 101.929 17.5614 101.929 18.9869V25.0018H103.841V18.7567C103.841 16.3278 102.505 15.0558 100.497 15.0558C99.0209 15.0558 98.0557 15.7397 97.6019 16.7816H97.4804V15.1836H95.6459V25.0018H97.5571V19.1722Z" fill="#3F3D56"/>
<path d="M113.296 25.0018H115.239L117.233 17.913H117.38L119.375 25.0018H121.324L124.207 15.1836H122.232L120.321 22.3619H120.225L118.307 15.1836H116.332L114.402 22.3938H114.306L112.382 15.1836H110.407L113.296 25.0018Z" fill="#3F3D56"/>
<path d="M126.021 25.0018H127.932V15.1836H126.021V25.0018ZM126.986 13.6687C127.644 13.6687 128.194 13.1573 128.194 12.5309C128.194 11.9045 127.644 11.3867 126.986 11.3867C126.321 11.3867 125.778 11.9045 125.778 12.5309C125.778 13.1573 126.321 13.6687 126.986 13.6687Z" fill="#3F3D56"/>
<path d="M135.086 15.1836H133.073V12.8313H131.162V15.1836H129.724V16.7177H131.162V22.5153C131.155 24.2987 132.517 25.1616 134.025 25.1296C134.633 25.1232 135.042 25.0082 135.265 24.9251L134.92 23.3462C134.792 23.3718 134.556 23.4293 134.249 23.4293C133.629 23.4293 133.073 23.2248 133.073 22.119V16.7177H135.086V15.1836Z" fill="#3F3D56"/>
<path d="M139.323 19.1722C139.323 17.6062 140.314 16.7113 141.675 16.7113C142.992 16.7113 143.778 17.5487 143.778 18.9869V25.0018H145.689V18.7567C145.689 16.3086 144.347 15.0558 142.327 15.0558C140.799 15.0558 139.879 15.7205 139.419 16.7816H139.297V11.9109H137.412V25.0018H139.323V19.1722Z" fill="#3F3D56"/>
<path d="M162.016 16.0465H164.042C163.601 13.4961 161.422 11.7319 158.596 11.7319C155.209 11.7319 152.735 14.2823 152.735 18.4627C152.735 22.6048 155.138 25.1808 158.686 25.1808C161.863 25.1808 164.132 23.0969 164.132 19.7923V18.3029H158.986V19.9329H162.221C162.176 22.0423 160.782 23.3782 158.686 23.3782C156.378 23.3782 154.697 21.6332 154.697 18.4499C154.697 15.2795 156.391 13.5344 158.609 13.5344C160.348 13.5344 161.524 14.4933 162.016 16.0465Z" fill="#3F3D56"/>
<path d="M170.621 25.1999C173.389 25.1999 175.198 23.1737 175.198 20.1374C175.198 17.082 173.389 15.0558 170.621 15.0558C167.854 15.0558 166.045 17.082 166.045 20.1374C166.045 23.1737 167.854 25.1999 170.621 25.1999ZM170.628 23.5955C168.819 23.5955 167.975 22.0167 167.975 20.131C167.975 18.2518 168.819 16.6538 170.628 16.6538C172.424 16.6538 173.268 18.2518 173.268 20.131C173.268 22.0167 172.424 23.5955 170.628 23.5955Z" fill="#3F3D56"/>
<path d="M181.467 25.1999C184.235 25.1999 186.044 23.1737 186.044 20.1374C186.044 17.082 184.235 15.0558 181.467 15.0558C178.699 15.0558 176.89 17.082 176.89 20.1374C176.89 23.1737 178.699 25.1999 181.467 25.1999ZM181.474 23.5955C179.665 23.5955 178.821 22.0167 178.821 20.131C178.821 18.2518 179.665 16.6538 181.474 16.6538C183.27 16.6538 184.113 18.2518 184.113 20.131C184.113 22.0167 183.27 23.5955 181.474 23.5955Z" fill="#3F3D56"/>
<path d="M192.294 28.8881C194.793 28.8881 196.723 27.744 196.723 25.2191V15.1836H194.85V16.7752H194.71C194.371 16.168 193.693 15.0558 191.865 15.0558C189.494 15.0558 187.749 16.9286 187.749 20.0543C187.749 23.1864 189.532 24.8548 191.853 24.8548C193.655 24.8548 194.352 23.8384 194.697 23.212H194.818V25.1424C194.818 26.6829 193.764 27.3477 192.313 27.3477C190.721 27.3477 190.101 26.5487 189.762 25.9862L188.12 26.6637C188.637 27.8654 189.948 28.8881 192.294 28.8881ZM192.274 23.2695C190.568 23.2695 189.679 21.9592 189.679 20.0288C189.679 18.1431 190.549 16.6793 192.274 16.6793C193.943 16.6793 194.838 18.0408 194.838 20.0288C194.838 22.055 193.924 23.2695 192.274 23.2695Z" fill="#3F3D56"/>
<path d="M201.198 11.9109H199.287V25.0018H201.198V11.9109Z" fill="#3F3D56"/>
<path d="M208 25.1999C210.142 25.1999 211.657 24.1452 212.091 22.5472L210.282 22.2212C209.937 23.1481 209.106 23.6211 208.02 23.6211C206.383 23.6211 205.284 22.56 205.233 20.668H212.213V19.9904C212.213 16.4428 210.091 15.0558 207.866 15.0558C205.13 15.0558 203.328 17.1396 203.328 20.1566C203.328 23.2056 205.105 25.1999 208 25.1999ZM205.239 19.2362C205.316 17.8427 206.326 16.6346 207.879 16.6346C209.362 16.6346 210.334 17.734 210.34 19.2362H205.239Z" fill="#3F3D56"/>
</svg>
