<svg width="40" height="40" viewBox="0 0 40 40" fill="none" xmlns="http://www.w3.org/2000/svg">
<path d="M39.8362 22.5375C41.2376 11.5823 33.4928 1.56527 22.5375 0.163829C11.5823 -1.23763 1.56528 6.50722 0.163827 17.4625C-1.23762 28.4176 6.50723 38.4347 17.4625 39.8362C28.4177 41.2376 38.4347 33.4928 39.8362 22.5375Z" fill="#070707"/>
<path d="M20.7414 19.6849V21.602H24.9393V24.8084H20.771V24.797C20.6595 24.797 20.5435 24.8084 20.4321 24.8084C19.8129 24.8101 19.1997 24.687 18.6288 24.4468C17.7994 24.096 17.0887 23.5133 16.5823 22.7686C15.9602 21.8468 15.6907 20.732 15.8229 19.6279C15.9551 18.5238 16.4804 17.5042 17.3025 16.7554C18.1246 16.0068 19.1888 15.5789 20.3005 15.5501C21.4121 15.5215 22.4969 15.8938 23.3566 16.5991H31.543C31.4384 16.2717 31.3157 15.9487 31.186 15.6349C30.3649 13.6898 29.0318 12.0037 27.3286 10.756C25.6254 9.50835 23.6157 8.74582 21.5136 8.54958C19.4113 8.35333 17.2952 8.73071 15.3905 9.64159C13.4858 10.5524 11.8635 11.9626 10.6966 13.7222C9.52975 15.4817 8.86167 17.5247 8.76358 19.6338C8.66552 21.7429 9.14112 23.8391 10.1398 25.6992C11.1383 27.5595 12.6226 29.1141 14.4346 30.1978C16.2467 31.2816 18.3186 31.8536 20.4299 31.8533H32.0274V19.6804L20.7414 19.6849ZM24.9393 29.9181H21.0735C20.9279 29.9181 20.7778 29.934 20.6186 29.9363H20.2821C18.606 29.9128 16.9642 29.458 15.5151 28.6156C14.0658 27.7732 12.8581 26.5718 12.0081 25.127C11.1582 23.6822 10.6949 22.0428 10.6626 20.3669C10.6304 18.691 11.0305 17.035 11.8243 15.5587C12.618 14.0822 13.7787 12.8352 15.1945 11.9378C16.6102 11.0404 18.2333 10.5228 19.9072 10.435C21.5812 10.3471 23.2495 10.6919 24.7515 11.4363C26.2534 12.1806 27.5382 13.2992 28.4822 14.6844H23.9842C23.1287 14.1324 22.1564 13.7875 21.1443 13.677C20.1322 13.5665 19.1084 13.6935 18.1539 14.0479C17.1996 14.4023 16.3409 14.9742 15.6462 15.7184C14.9513 16.4625 14.4398 17.3585 14.1517 18.335C13.8638 19.3115 13.8074 20.3417 13.9871 21.3438C14.1669 22.3458 14.5778 23.2922 15.1872 24.1078C15.7966 24.9233 16.5878 25.5855 17.4978 26.042C18.4079 26.4983 19.4118 26.7362 20.4299 26.7368H24.9393V29.9181ZM30.1287 29.9363H26.8585L26.8768 29.9249H26.8585V26.7413H30.1287V29.9363ZM30.1287 24.8129H26.8585V21.6065H30.1287V24.8129Z" fill="#262626"/>
<path d="M20.1751 19.08V20.9969H24.3753V24.2033H20.2024V24.192C20.091 24.192 19.975 24.2033 19.8659 24.2033C19.1067 24.2048 18.3588 24.0186 17.6889 23.6616C17.0189 23.3046 16.4473 22.7876 16.025 22.1568C15.596 21.5174 15.3324 20.7815 15.2577 20.0151C15.1831 19.2487 15.2999 18.4758 15.5975 17.7656C15.9479 16.9351 16.5316 16.2242 17.2781 15.719C17.9164 15.2886 18.6521 15.0241 19.4184 14.9494C20.1847 14.8748 20.9574 14.9924 21.6669 15.2914C22.0765 15.4636 22.4594 15.6932 22.8039 15.9737H30.9905C30.8835 15.6462 30.7631 15.3233 30.6334 15.0095C29.8094 13.0677 28.4748 11.3854 26.7714 10.1413C25.0681 8.89724 23.0595 8.13779 20.959 7.94362C18.8587 7.74946 16.7449 8.12785 14.8424 9.03864C12.9397 9.94936 11.3194 11.3585 10.1534 13.1162C8.98728 14.874 8.31921 16.9147 8.21996 19.0218C8.12073 21.1288 8.59405 23.2233 9.58969 25.0829C10.5853 26.9425 12.066 28.4976 13.8746 29.5832C15.6832 30.6688 17.752 31.2442 19.8614 31.2484H31.4589V19.0687L20.1751 19.08ZM24.3753 29.3131H20.5094C20.3616 29.3131 20.2139 29.329 20.0547 29.3313H19.7249C18.0482 29.3102 16.4053 28.8574 14.9545 28.0165C13.5038 27.1756 12.2941 25.9751 11.4425 24.5306C10.5907 23.0862 10.1255 21.4468 10.0919 19.7702C10.0582 18.0937 10.4571 16.4368 11.2502 14.9594C12.0431 13.4819 13.2035 12.2338 14.6193 11.3353C16.0351 10.4369 17.6586 9.91837 19.3331 9.82988C21.0076 9.74151 22.6766 10.0861 24.1791 10.8304C25.6818 11.5747 26.9671 12.6937 27.9114 14.0794H23.4179C22.563 13.5231 21.5901 13.1743 20.5764 13.0605C19.5629 12.9468 18.5368 13.0714 17.5799 13.4243C16.623 13.7773 15.7617 14.3488 15.0648 15.0935C14.3677 15.8381 13.8543 16.7352 13.5654 17.7134C13.2764 18.6916 13.2198 19.7237 13.4003 20.7274C13.5807 21.7312 13.9931 22.6791 14.6045 23.4954C15.216 24.3117 16.0097 24.9739 16.9223 25.4293C17.8351 25.8846 18.8414 26.1204 19.8614 26.1181H24.3708L24.3753 29.3131ZM29.5646 29.3313H26.2946L26.3105 29.32H26.2946V26.1181H29.5646V29.3313ZM29.5646 24.2079H26.2946V21.0015H29.5646V24.2079Z" fill="white"/>
</svg>
