<svg width="40" height="36" viewBox="0 0 40 36" fill="none" xmlns="http://www.w3.org/2000/svg">
<path d="M39.4452 15.3492L31.6652 2.27687C31.2698 1.58603 30.6992 1.01171 30.0108 0.611971C29.3226 0.212212 28.541 0.00117182 27.745 0.000171819H12.2754C11.4717 -0.00683217 10.6807 0.200412 9.98377 0.600571C9.28681 1.00071 8.70905 1.57933 8.30993 2.27687L0.57514 15.3492C0.19772 16.0432 0 16.8207 0 17.6108C0 18.4008 0.19772 19.1784 0.57514 19.8724L8.30993 32.9448C8.70905 33.6422 9.28681 34.221 9.98377 34.621C10.6807 35.0212 11.4717 35.2284 12.2754 35.2214H27.745C28.5394 35.222 29.32 35.0132 30.0082 34.6162C30.6964 34.2192 31.268 33.6478 31.6652 32.9598L39.4 19.8876C39.7856 19.195 39.9918 18.4168 39.9998 17.6241C40.0076 16.8314 39.817 16.0493 39.4452 15.3492ZM36.4296 18.1838L28.6496 31.256C28.5456 31.4448 28.3892 31.5992 28.1992 31.7008C28.0092 31.8026 27.7938 31.847 27.5792 31.829H12.2754C12.0625 31.8352 11.8516 31.7854 11.6639 31.685C11.4761 31.5844 11.3178 31.4366 11.2048 31.256L3.48512 18.1838C3.38836 17.992 3.33796 17.7803 3.33796 17.5656C3.33796 17.3508 3.38836 17.1391 3.48512 16.9474L11.2199 3.89019C11.324 3.70151 11.4804 3.54701 11.6704 3.44533C11.8604 3.34367 12.0757 3.29917 12.2904 3.31723H27.745C27.9578 3.31109 28.1686 3.36075 28.3564 3.46125C28.5442 3.56175 28.7026 3.70963 28.8154 3.89019L36.5502 16.9625C36.652 17.1546 36.696 17.372 36.6774 17.5886C36.6586 17.8052 36.5778 18.0118 36.4448 18.1838H36.4296Z" fill="#2F80ED"/>
<path d="M27.0519 9.39366H23.9459C22.7311 9.38542 21.5617 9.85508 20.6901 10.7013C19.8185 11.5475 19.3145 12.7024 19.2869 13.9169V17.2189H15.9247C14.7099 17.2107 13.5405 17.6804 12.6689 18.5265C11.7973 19.3729 11.2933 20.5277 11.2656 21.7423V24.7577C11.2736 25.3989 11.5349 26.0109 11.9925 26.4601C12.4502 26.9093 13.067 27.1591 13.7082 27.1551H16.7237C17.9385 27.1633 19.1079 26.6937 19.9795 25.8475C20.8511 25.0013 21.3551 23.8463 21.3827 22.6319V19.3901H24.7601C25.9749 19.3983 27.1443 18.9287 28.0159 18.0825C28.8873 17.2363 29.3915 16.0813 29.4191 14.8668V11.8513C29.4251 11.5345 29.3685 11.2196 29.2529 10.9246C29.1371 10.6296 28.9645 10.3603 28.7447 10.1321C28.5247 9.90388 28.2621 9.72118 27.9717 9.59448C27.6813 9.46778 27.3687 9.39954 27.0519 9.39366ZM19.2869 22.6619C19.2829 22.9847 19.2155 23.3035 19.0883 23.6003C18.9611 23.8969 18.7769 24.1655 18.5459 24.3911C18.3149 24.6165 18.0417 24.7941 17.7419 24.9139C17.4423 25.0339 17.1219 25.0935 16.7991 25.0895H13.7836C13.7141 25.0895 13.6473 25.0631 13.5968 25.0153C13.5463 24.9677 13.516 24.9025 13.5122 24.8331V21.8177C13.5161 21.4949 13.5836 21.1761 13.7107 20.8793C13.8379 20.5827 14.0223 20.3139 14.2533 20.0885C14.4843 19.8631 14.7575 19.6855 15.0571 19.5657C15.3569 19.4457 15.6773 19.3861 16.0001 19.3901H19.3623L19.2869 22.6619ZM27.3233 14.7914C27.3153 15.4446 27.0493 16.0681 26.5831 16.5258C26.1169 16.9834 25.4887 17.238 24.8355 17.234H21.4581V13.932C21.4601 13.608 21.5261 13.2875 21.6523 12.9891C21.7787 12.6907 21.9627 12.4202 22.1939 12.1932C22.4251 11.9662 22.6989 11.7872 22.9997 11.6664C23.3003 11.5456 23.6219 11.4855 23.9459 11.4894H27.0519C27.1239 11.4894 27.1929 11.518 27.2437 11.5689C27.2947 11.6198 27.3233 11.6889 27.3233 11.7608V14.7914Z" fill="#2F80ED" stroke="#2F80ED" stroke-width="0.5"/>
</svg>
