<svg width="240" height="40" viewBox="0 0 240 40" fill="none" xmlns="http://www.w3.org/2000/svg">
<path d="M235.941 0H4C1.79086 0 0 1.79086 0 4V36C0 38.2091 1.79086 40 4 40H235.941C238.15 40 239.941 38.2091 239.941 36V4C239.941 1.79086 238.15 0 235.941 0Z" fill="#2E9DEC"/>
<path d="M30.4531 14C29.6719 14.3438 28.8594 14.5781 28.0156 14.7031C28.9219 14.1406 29.5469 13.3438 29.8906 12.3125C29.0469 12.8125 28.1406 13.1562 27.1719 13.3438C26.3594 12.4688 25.2969 12.0156 23.9844 11.9844C22.7969 12.0156 21.7969 12.4375 20.9844 13.25C20.1719 14.0625 19.75 15.0781 19.7188 16.2969C19.7188 16.6406 19.7656 16.9688 19.8594 17.2812C18.0469 17.1562 16.375 16.7031 14.8438 15.9219C13.3438 15.1406 12.0625 14.0938 11 12.7812C10.625 13.4375 10.4375 14.1562 10.4375 14.9375C10.4375 15.6875 10.6094 16.375 10.9531 17C11.2969 17.625 11.75 18.125 12.3125 18.5C11.5938 18.4688 10.9531 18.2969 10.3906 17.9844V18.0312C10.3906 19.0938 10.7031 20.0156 11.3281 20.7969C11.9844 21.5469 12.8125 22.0312 13.8125 22.25C13.4688 22.3438 13.0938 22.3906 12.6875 22.3906C12.4062 22.3906 12.1406 22.3594 11.8906 22.2969C12.1719 23.1719 12.6719 23.8906 13.3906 24.4531C14.1094 24.9844 14.9375 25.2656 15.875 25.2969C15.1562 25.8906 14.3438 26.3438 13.4375 26.6562C12.5312 26.9688 11.5781 27.125 10.5781 27.125C10.2344 27.125 9.89061 27.1094 9.54688 27.0781C10.4844 27.6719 11.5 28.1406 12.5938 28.4844C13.7188 28.8281 14.8906 29 16.1094 29C20.0781 28.8438 23.0938 27.5156 25.1562 25.0156C27.25 22.5156 28.3125 19.7812 28.3438 16.8125L28.2969 16.25C29.1406 15.625 29.8594 14.875 30.4531 14Z" fill="white"/>
<path d="M52.438 26.0018H60.3449V24.3015H54.4131V12.9109H52.438V26.0018Z" fill="white"/>
<path d="M66.5804 26.1999C69.3481 26.1999 71.1571 24.1737 71.1571 21.1374C71.1571 18.082 69.3481 16.0558 66.5804 16.0558C63.8126 16.0558 62.0037 18.082 62.0037 21.1374C62.0037 24.1737 63.8126 26.1999 66.5804 26.1999ZM66.5868 24.5955C64.7778 24.5955 63.9341 23.0167 63.9341 21.131C63.9341 19.2518 64.7778 17.6538 66.5868 17.6538C68.3829 17.6538 69.2267 19.2518 69.2267 21.131C69.2267 23.0167 68.3829 24.5955 66.5868 24.5955Z" fill="white"/>
<path d="M77.4069 29.8881C79.9062 29.8881 81.8366 28.744 81.8366 26.2191V16.1836H79.9637V17.7752H79.8231C79.4843 17.168 78.8068 16.0558 76.9786 16.0558C74.6072 16.0558 72.8622 17.9286 72.8622 21.0543C72.8622 24.1864 74.6456 25.8548 76.9659 25.8548C78.7684 25.8548 79.4652 24.8384 79.8103 24.212H79.9318V26.1424C79.9318 27.6829 78.8771 28.3477 77.4261 28.3477C75.8345 28.3477 75.2144 27.5487 74.8757 26.9862L73.2329 27.6637C73.7507 28.8654 75.061 29.8881 77.4069 29.8881ZM77.3877 24.2695C75.6811 24.2695 74.7926 22.9592 74.7926 21.0288C74.7926 19.1431 75.6619 17.6793 77.3877 17.6793C79.0561 17.6793 79.951 19.0408 79.951 21.0288C79.951 23.055 79.0369 24.2695 77.3877 24.2695Z" fill="white"/>
<path d="M89.1635 26.0018H91.0747V16.1836H89.1635V26.0018ZM90.1287 14.6687C90.7871 14.6687 91.3368 14.1573 91.3368 13.5309C91.3368 12.9045 90.7871 12.3867 90.1287 12.3867C89.4639 12.3867 88.9206 12.9045 88.9206 13.5309C88.9206 14.1573 89.4639 14.6687 90.1287 14.6687Z" fill="white"/>
<path d="M95.5571 20.1722C95.5571 18.6062 96.5159 17.7113 97.8455 17.7113C99.1431 17.7113 99.9293 18.5614 99.9293 19.9869V26.0018H101.841V19.7567C101.841 17.3278 100.505 16.0558 98.4975 16.0558C97.0209 16.0558 96.0557 16.7397 95.6019 17.7816H95.4804V16.1836H93.6459V26.0018H95.5571V20.1722Z" fill="white"/>
<path d="M111.296 26.0018H113.239L115.233 18.913H115.38L117.375 26.0018H119.324L122.207 16.1836H120.232L118.321 23.3619H118.225L116.307 16.1836H114.332L112.402 23.3938H112.306L110.382 16.1836H108.407L111.296 26.0018Z" fill="white"/>
<path d="M124.021 26.0018H125.932V16.1836H124.021V26.0018ZM124.986 14.6687C125.644 14.6687 126.194 14.1573 126.194 13.5309C126.194 12.9045 125.644 12.3867 124.986 12.3867C124.321 12.3867 123.778 12.9045 123.778 13.5309C123.778 14.1573 124.321 14.6687 124.986 14.6687Z" fill="white"/>
<path d="M133.086 16.1836H131.073V13.8313H129.162V16.1836H127.724V17.7177H129.162V23.5153C129.155 25.2987 130.517 26.1616 132.025 26.1296C132.633 26.1232 133.042 26.0082 133.265 25.9251L132.92 24.3462C132.792 24.3718 132.556 24.4293 132.249 24.4293C131.629 24.4293 131.073 24.2248 131.073 23.119V17.7177H133.086V16.1836Z" fill="white"/>
<path d="M137.323 20.1722C137.323 18.6062 138.314 17.7113 139.675 17.7113C140.992 17.7113 141.778 18.5487 141.778 19.9869V26.0018H143.689V19.7567C143.689 17.3086 142.347 16.0558 140.327 16.0558C138.799 16.0558 137.879 16.7205 137.419 17.7816H137.297V12.9109H135.412V26.0018H137.323V20.1722Z" fill="white"/>
<path d="M150.511 14.6112H154.589V26.0018H156.558V14.6112H160.643V12.9109H150.511V14.6112Z" fill="white"/>
<path d="M163.731 26.0018H165.675L167.669 18.913H167.816L169.81 26.0018H171.76L174.643 16.1836H172.668L170.756 23.3619H170.66L168.743 16.1836H166.768L164.837 23.3938H164.741L162.817 16.1836H160.842L163.731 26.0018Z" fill="white"/>
<path d="M176.456 26.0018H178.368V16.1836H176.456V26.0018ZM177.422 14.6687C178.08 14.6687 178.63 14.1573 178.63 13.5309C178.63 12.9045 178.08 12.3867 177.422 12.3867C176.757 12.3867 176.214 12.9045 176.214 13.5309C176.214 14.1573 176.757 14.6687 177.422 14.6687Z" fill="white"/>
<path d="M185.522 16.1836H183.508V13.8313H181.597V16.1836H180.159V17.7177H181.597V23.5153C181.591 25.2987 182.952 26.1616 184.461 26.1296C185.068 26.1232 185.477 26.0082 185.701 25.9251L185.356 24.3462C185.228 24.3718 184.991 24.4293 184.685 24.4293C184.065 24.4293 183.508 24.2248 183.508 23.119V17.7177H185.522V16.1836Z" fill="white"/>
<path d="M192.219 16.1836H190.206V13.8313H188.295V16.1836H186.856V17.7177H188.295V23.5153C188.288 25.2987 189.65 26.1616 191.158 26.1296C191.765 26.1232 192.174 26.0082 192.398 25.9251L192.053 24.3462C191.925 24.3718 191.689 24.4293 191.382 24.4293C190.762 24.4293 190.206 24.2248 190.206 23.119V17.7177H192.219V16.1836Z" fill="white"/>
<path d="M198.459 26.1999C200.601 26.1999 202.116 25.1452 202.55 23.5472L200.741 23.2212C200.396 24.1481 199.565 24.6211 198.479 24.6211C196.842 24.6211 195.743 23.56 195.692 21.668H202.672V20.9904C202.672 17.4428 200.55 16.0558 198.325 16.0558C195.589 16.0558 193.787 18.1396 193.787 21.1566C193.787 24.2056 195.564 26.1999 198.459 26.1999ZM195.698 20.2362C195.775 18.8427 196.785 17.6346 198.338 17.6346C199.821 17.6346 200.793 18.734 200.799 20.2362H195.698Z" fill="white"/>
<path d="M204.792 26.0018H206.704V20.006C206.704 18.7212 207.694 17.7944 209.049 17.7944C209.446 17.7944 209.893 17.8647 210.047 17.9094V16.0813C209.855 16.0558 209.478 16.0366 209.235 16.0366C208.084 16.0366 207.1 16.6886 206.742 17.7433H206.64V16.1836H204.792V26.0018Z" fill="white"/>
</svg>
