<svg width="24" height="20" viewBox="0 0 24 20" fill="none" xmlns="http://www.w3.org/2000/svg">
<path d="M24 2.75674C23.1075 3.14824 22.1565 3.40774 21.165 3.53374C22.185 2.92474 22.9635 1.96774 23.3295 0.814242C22.3785 1.38124 21.3285 1.78174 20.2095 2.00524C19.3065 1.04374 18.0195 0.448242 16.6155 0.448242C13.8915 0.448242 11.6985 2.65924 11.6985 5.36974C11.6985 5.75974 11.7315 6.13474 11.8125 6.49174C7.722 6.29224 4.1025 4.33174 1.671 1.34524C1.2465 2.08174 0.9975 2.92474 0.9975 3.83224C0.9975 5.53624 1.875 7.04674 3.183 7.92124C2.3925 7.90624 1.617 7.67674 0.96 7.31524C0.96 7.33024 0.96 7.34974 0.96 7.36924C0.96 9.76024 2.6655 11.7462 4.902 12.2037C4.5015 12.3132 4.065 12.3657 3.612 12.3657C3.297 12.3657 2.979 12.3477 2.6805 12.2817C3.318 14.2302 5.127 15.6627 7.278 15.7092C5.604 17.0187 3.4785 17.8077 1.1775 17.8077C0.774 17.8077 0.387 17.7897 0 17.7402C2.1795 19.1457 4.7625 19.9482 7.548 19.9482C16.602 19.9482 21.552 12.4482 21.552 5.94724C21.552 5.72974 21.5445 5.51974 21.534 5.31124C22.5105 4.61824 23.331 3.75274 24 2.75674Z" fill="white"/>
</svg>
