<svg width="127" height="36" viewBox="0 0 127 36" fill="none" xmlns="http://www.w3.org/2000/svg">
<path d="M32.1624 23.4989V15.9394C32.1624 15.2106 31.8697 14.5119 31.3584 13.9965C30.843 13.4812 30.142 13.1913 29.4122 13.1905H21.854C21.854 10.8124 22.6787 8.508 24.1837 6.66761C25.6929 4.82718 27.7875 3.56392 30.1172 3.09177C32.447 2.61961 34.8715 2.9676 36.9744 4.07678C39.0773 5.18596 40.7349 6.98816 41.6627 9.17809C42.3224 10.7455 42.5905 12.4528 42.4296 14.1474C42.273 15.842 41.6998 17.4713 40.7597 18.8896C39.8154 20.3079 38.5413 21.4712 37.0404 22.2755C35.5395 23.0798 33.8654 23.5001 32.1624 23.4989V23.4989Z" fill="url(#paint0_linear)"/>
<path d="M29.412 13.1904H14.2957C12.7742 13.1904 11.5454 14.4211 11.5454 15.9393V31.0584C11.5454 32.5766 12.7742 33.8073 14.2957 33.8073H29.412C30.9335 33.8073 32.1623 32.5766 32.1623 31.0584V15.9393C32.1623 14.4211 30.9335 13.1904 29.412 13.1904V13.1904Z" fill="url(#paint1_linear)"/>
<path d="M21.854 33.8072C21.854 31.0732 22.9384 28.4512 24.8723 26.518C26.8061 24.5848 29.4286 23.4988 32.1624 23.4988V31.0583C32.1624 31.7873 31.8738 32.4865 31.3584 33.0021C30.843 33.5176 30.142 33.8072 29.4122 33.8072H21.854Z" fill="url(#paint2_linear)"/>
<path d="M11.5454 23.4989V15.9393C11.5454 15.2103 11.834 14.5111 12.3495 13.9956C12.8649 13.48 13.5659 13.1904 14.2957 13.1904H21.8539C21.8539 15.9244 20.7694 18.5464 18.8356 20.4796C16.9017 22.4128 14.2792 23.4989 11.5454 23.4989V23.4989Z" fill="url(#paint3_linear)"/>
<path d="M55.6531 28.0389H59.2363L54.2058 14.1448H50.2886L45.2622 28.0389H48.8042L49.6371 25.5847H54.8202L55.6531 28.0389ZM53.9502 22.9721H50.5278L52.2266 17.8855L53.9502 22.9721ZM65.8502 23.9023L63.2979 16.9949H59.5167L64.0112 27.6628L61.4753 33.2838H65.1204L72.0477 16.9949H68.3861L65.8502 23.9023ZM76.6535 22.9127C76.6535 21.0127 77.5854 20.4585 79.1894 20.4585H80.1171V16.8761C78.6327 16.8761 77.4245 17.6678 76.6535 18.8355V16.9949H73.2682V28.0389H76.6535V22.9127ZM92.5408 22.5169C92.5408 19.0137 90.0503 16.8365 86.8011 16.8365C83.5766 16.8365 81.0614 19.0137 81.0614 22.5169C81.0614 26.0201 83.5189 28.1972 86.764 28.1972C90.0091 28.1972 92.5408 26.0201 92.5408 22.5169V22.5169ZM84.5085 22.5169C84.5085 20.6366 85.5765 19.7658 86.8011 19.7658C87.9886 19.7658 89.0978 20.6366 89.0978 22.5169C89.0978 24.3773 87.9721 25.268 86.764 25.268C85.5352 25.268 84.5085 24.3773 84.5085 22.5169ZM99.8722 22.9523C99.8722 26.5347 102.206 28.1774 105.059 28.1774C107.909 28.1774 110.263 26.5347 110.263 22.9523V14.2437H108.461V22.9721C108.461 25.5055 107.117 26.5941 105.076 26.5941C103.039 26.5941 101.674 25.5055 101.674 22.9721V14.2437H99.8722V22.9523ZM113.269 28.0389H115.067V14.2437H113.269V28.0389Z" fill="white"/>
<defs>
<linearGradient id="paint0_linear" x1="32.1666" y1="2.88647" x2="32.1666" y2="23.4989" gradientUnits="userSpaceOnUse">
<stop stop-color="#2BDBDC"/>
<stop offset="1" stop-color="#0067F4"/>
</linearGradient>
<linearGradient id="paint1_linear" x1="21.8539" y1="13.1904" x2="21.8539" y2="33.8073" gradientUnits="userSpaceOnUse">
<stop stop-color="#2BDBDC"/>
<stop offset="1" stop-color="#0067F4"/>
</linearGradient>
<linearGradient id="paint2_linear" x1="27.0082" y1="23.4988" x2="27.0082" y2="33.8072" gradientUnits="userSpaceOnUse">
<stop stop-color="#2BDBDC"/>
<stop offset="1" stop-color="#0067F4"/>
</linearGradient>
<linearGradient id="paint3_linear" x1="16.6996" y1="13.1904" x2="16.6996" y2="23.4989" gradientUnits="userSpaceOnUse">
<stop stop-color="#2BDBDC"/>
<stop offset="1" stop-color="#0067F4"/>
</linearGradient>
</defs>
</svg>
