<svg width="60" height="60" viewBox="0 0 60 60" fill="none" xmlns="http://www.w3.org/2000/svg">
<path fill-rule="evenodd" clip-rule="evenodd" d="M13.0468 6.89844C9.73738 6.89844 7.28858 9.79504 7.39824 12.9363C7.50347 15.9543 7.36675 19.8629 6.38279 23.0504C5.39531 26.2469 3.72645 28.2724 1 28.5325V31.4677C3.72645 31.7284 5.39531 33.7529 6.38267 36.9498C7.36675 40.1373 7.50337 44.046 7.39812 47.0639C7.28847 50.2047 9.73726 53.1017 13.0473 53.1017H46.9577C50.267 53.1017 52.7154 50.2052 52.6057 47.0639C52.5005 44.046 52.6372 40.1373 53.6212 36.9498C54.6086 33.7529 56.2734 31.7276 59 31.4677V28.5325C56.2735 28.2719 54.6087 26.2474 53.6212 23.0504C52.6371 19.8634 52.5005 15.9543 52.6057 12.9363C52.7154 9.79549 50.267 6.89844 46.9577 6.89844H13.0463H13.0468ZM40.3221 35.3396C40.3221 39.6651 37.0957 42.2883 31.7414 42.2883H22.6271C22.3663 42.2883 22.1163 42.1847 21.932 42.0003C21.7476 41.816 21.644 41.5659 21.644 41.3052V18.6951C21.644 18.4344 21.7476 18.1843 21.932 17.9999C22.1163 17.8156 22.3663 17.7121 22.6271 17.7121H31.6896C36.1541 17.7121 39.0842 20.1304 39.0842 23.8433C39.0842 26.4493 37.113 28.7823 34.6019 29.191V29.327C38.0203 29.7019 40.3221 32.0695 40.3221 35.3396ZM30.7476 20.8283H25.5507V28.1689H29.9279C33.3115 28.1689 35.1773 26.8064 35.1773 24.371C35.177 22.0886 33.5729 20.8283 30.7476 20.8283ZM25.5507 31.0815V39.171H30.9388C34.4619 39.171 36.328 37.7574 36.328 35.1007C36.328 32.4441 34.4095 31.0811 30.7123 31.0811H25.5507V31.0815Z" fill="#7952B3"/>
</svg>
