<svg width="31" height="25" viewBox="0 0 31 25" fill="none" xmlns="http://www.w3.org/2000/svg">
<g clip-path="url(#clip0)">
<path fill-rule="evenodd" clip-rule="evenodd" d="M6.25612 0.87793C4.53749 0.87793 3.26578 2.38219 3.32272 4.01352C3.37738 5.58078 3.30637 7.61062 2.79538 9.26595C2.28257 10.9259 1.4159 11.9779 0 12.1129V13.6372C1.4159 13.7726 2.28257 14.8239 2.79532 16.4842C3.30637 18.1395 3.37732 20.1693 3.32267 21.7366C3.26572 23.3677 4.53743 24.8722 6.25635 24.8722H23.8667C25.5853 24.8722 26.8568 23.3679 26.7998 21.7366C26.7452 20.1693 26.8162 18.1395 27.3272 16.4842C27.84 14.8239 28.7045 13.7721 30.1205 13.6372V12.1129C28.7046 11.9776 27.84 10.9262 27.3272 9.26595C26.8161 7.61086 26.7452 5.58078 26.7998 4.01352C26.8568 2.38242 25.5853 0.87793 23.8667 0.87793H6.25588H6.25612ZM20.4207 15.648C20.4207 17.8942 18.7452 19.2565 15.9646 19.2565H11.2313C11.096 19.2565 10.9661 19.2028 10.8704 19.107C10.7746 19.0113 10.7208 18.8814 10.7208 18.746V7.00415C10.7208 6.86876 10.7746 6.7389 10.8704 6.64316C10.9661 6.54742 11.096 6.49364 11.2313 6.49364H15.9377C18.2562 6.49364 19.7778 7.74952 19.7778 9.6777C19.7778 11.0311 18.7542 12.2426 17.4501 12.4549V12.5255C19.2253 12.7202 20.4207 13.9497 20.4207 15.648ZM15.4485 8.11196H12.7497V11.9241H15.0228C16.78 11.9241 17.7489 11.2165 17.7489 9.95173C17.7487 8.76644 16.9157 8.11196 15.4485 8.11196ZM12.7497 13.4366V17.6377H15.5478C17.3774 17.6377 18.3465 16.9036 18.3465 15.5239C18.3465 14.1442 17.3502 13.4364 15.4302 13.4364H12.7497V13.4366Z" fill="#7952B3"/>
</g>
<defs>
<clipPath id="clip0">
<rect width="30.1205" height="24" fill="white" transform="translate(0 0.873779)"/>
</clipPath>
</defs>
</svg>
