<svg width="40" height="40" viewBox="0 0 40 40" fill="none" xmlns="http://www.w3.org/2000/svg">
<path opacity="0.64" d="M15.0604 31.9995C14.2693 31.9995 13.4959 32.2342 12.8382 32.6737C12.1804 33.1131 11.6678 33.7378 11.365 34.4687C11.0622 35.1995 10.9831 36.0039 11.1374 36.7798C11.2917 37.5557 11.6726 38.2684 12.2321 38.8279C12.7914 39.3871 13.5042 39.7681 14.2801 39.9225C15.056 40.0768 15.8602 39.9976 16.5911 39.6949C17.3221 39.3921 17.9468 38.8795 18.3863 38.2216C18.8257 37.5639 19.0604 36.7905 19.0604 35.9993C19.0604 34.9386 18.639 33.9211 17.8888 33.171C17.1387 32.4209 16.1212 31.9995 15.0604 31.9995Z" fill="#542DED"/>
<path opacity="0.64" d="M31.0791 31.9995C30.2878 31.9995 29.5146 32.2342 28.8569 32.6737C28.1991 33.1131 27.6864 33.7378 27.3837 34.4687C27.0809 35.1995 27.0016 36.0039 27.1559 36.7798C27.3103 37.5557 27.6913 38.2684 28.2507 38.8279C28.81 39.3871 29.5229 39.7681 30.2988 39.9225C31.0747 40.0768 31.8789 39.9976 32.6098 39.6949C33.3406 39.3921 33.9653 38.8795 34.4048 38.2216C34.8444 37.5639 35.0789 36.7905 35.0789 35.9993C35.0789 34.9386 34.6575 33.9211 33.9074 33.171C33.1572 32.4209 32.1399 31.9995 31.0791 31.9995Z" fill="#542DED"/>
<path d="M35.0002 4H8.88069C8.63374 4.00855 8.39854 4.10829 8.2207 4.28L12.2207 21.7197C12.2207 21.8596 12.2207 21.9796 12.3606 22.1196C12.8269 22.6859 13.4134 23.1412 14.0776 23.4527C14.7418 23.764 15.4671 23.9235 16.2006 23.9195H31.0801C33.4413 23.8935 35.698 22.9427 37.3656 21.271C39.0334 19.5997 39.9792 17.3408 40.0001 14.9798V8.97988C39.9948 7.6573 39.4656 6.39068 38.5286 5.45736C37.5915 4.52402 36.3228 4 35.0002 4Z" fill="#542DED"/>
<path opacity="0.8" d="M32.2793 29.5794H18.6796C16.5699 29.5883 14.5206 28.8748 12.8724 27.558C11.2242 26.2408 10.0765 24.3994 9.61974 22.3396L5.61988 4.67995C5.48587 4.08682 5.15695 3.5557 4.68566 3.17142C4.21438 2.78714 3.62791 2.57188 3.01994 2.56H1.27998C0.940504 2.56 0.614945 2.42514 0.374907 2.18512C0.134855 1.94508 0 1.61951 0 1.28004C0 0.940563 0.134855 0.615005 0.374907 0.374967C0.614945 0.134914 0.940504 5.9353e-05 1.27998 5.9353e-05H3.01994C4.22118 -0.00564496 5.38816 0.39998 6.32689 1.1495C7.2656 1.89902 7.91949 2.94729 8.17978 4.11997L12.1798 21.7795C12.5125 23.2697 13.3441 24.6015 14.5371 25.5544C15.7302 26.5073 17.2128 27.0243 18.7396 27.0195H32.3393C32.6787 27.0195 33.0044 27.1543 33.2443 27.3944C33.4844 27.6343 33.6191 27.9599 33.6191 28.2994C33.6191 28.6389 33.4844 28.9645 33.2443 29.2046C33.0044 29.4445 32.6787 29.5794 32.3393 29.5794H32.2793Z" fill="#542DED"/>
</svg>
