<svg width="26" height="24" viewBox="0 0 26 24" fill="none" xmlns="http://www.w3.org/2000/svg">
<path d="M20.0395 12.6064L22.7291 14.1484L22.7289 14.1486L22.7366 14.1525C22.9864 14.2774 23.2501 14.368 23.5225 14.368C23.7913 14.368 24.094 14.2796 24.3483 14.1525L24.3552 14.149L24.3617 14.1449C24.8373 13.8422 25.15 13.3585 25.15 12.7804V2.47754H25.1502L25.1498 2.47005C25.1062 1.59852 24.4079 0.85 23.4825 0.85H13.4992C10.3814 0.85 7.83835 3.39303 7.83835 6.51082C7.83835 6.97768 7.9011 7.41174 7.99799 7.83835H2.59734C1.63596 7.83835 0.85 8.62431 0.85 9.58569V21.2063C0.85 21.8144 1.15418 22.3844 1.72136 22.6928C1.9853 22.867 2.29173 22.9537 2.59734 22.9537C2.90444 22.9537 3.20686 22.8663 3.46309 22.7382L3.46317 22.7383L3.46968 22.7347L7.22342 20.6182L7.22363 20.6185L7.23296 20.6123C7.3289 20.5484 7.4199 20.5177 7.54908 20.5177H13.8985C17.3751 20.5177 20.2382 17.6958 20.2382 14.178C20.2382 13.6438 20.1568 13.1122 20.0395 12.6064ZM6.68333 19.6346L6.68325 19.6344L6.67674 19.6381L2.923 21.7545L2.9228 21.7542L2.91347 21.7604C2.72425 21.8865 2.47042 21.8865 2.28121 21.7604C2.07235 21.6211 1.94867 21.4238 1.94867 21.2063V9.58569C1.94867 9.22927 2.24091 8.93702 2.59734 8.93702H13.8985C16.7715 8.93702 19.1395 11.2666 19.1395 14.178C19.1395 17.0503 16.7707 19.4191 13.8985 19.4191H7.54908C7.24198 19.4191 6.93956 19.5064 6.68333 19.6346ZM19.9225 11.2921L19.9226 11.2919L19.9157 11.2885L19.9065 11.2839C19.7726 11.2169 19.6144 11.1377 19.4216 11.1177C18.3465 9.15528 16.2822 7.83835 13.8985 7.83835H9.136C9.00327 7.40837 8.93702 6.97659 8.93702 6.51082C8.93702 3.99798 10.9863 1.94867 13.4992 1.94867H23.4825C23.7591 1.94867 24.0114 2.20098 24.0114 2.47754V12.7404C24.0114 12.9252 23.9212 13.077 23.7648 13.1709C23.6171 13.2595 23.434 13.2662 23.2335 13.167L19.9225 11.2921Z" fill="white" stroke="white" stroke-width="0.3"/>
</svg>
