<svg width="24" height="25" viewBox="0 0 24 25" fill="none" xmlns="http://www.w3.org/2000/svg">
<path d="M12.0001 0.248047C5.37268 0.248047 0 5.62073 0 12.2481C0 18.1921 4.32626 23.1147 9.9987 24.068V14.7517H7.10393V11.3991H9.9987V8.92705C9.9987 6.05877 11.7506 4.49572 14.3096 4.49572C15.5353 4.49572 16.5886 4.58705 16.8943 4.62727V7.62539L15.1194 7.62625C13.728 7.62625 13.4598 8.28732 13.4598 9.25773V11.3974H16.7798L16.3468 14.7499H13.4598V24.1481C19.397 23.4255 24 18.3775 24 12.2447C24 5.62073 18.6273 0.248047 12.0001 0.248047Z" fill="white"/>
</svg>
