<svg width="24" height="25" viewBox="0 0 24 25" fill="none" xmlns="http://www.w3.org/2000/svg">
<path d="M12.2362 24.1992C12.1567 24.1992 12.0773 24.1992 11.9973 24.1988C10.116 24.2034 8.37781 24.1556 6.68738 24.0527C5.13757 23.9584 3.7229 23.4228 2.59607 22.504C1.50879 21.6174 0.766296 20.4186 0.389282 18.9413C0.0611573 17.6551 0.0437622 16.3926 0.0270996 15.1715C0.0150146 14.2953 0.00256348 13.2571 0 12.2013C0.00256348 11.1412 0.0150146 10.103 0.0270996 9.2268C0.0437622 8.00585 0.0611573 6.74334 0.389282 5.45703C0.766296 3.97973 1.50879 2.78094 2.59607 1.89434C3.7229 0.975519 5.13757 0.439935 6.68756 0.345636C8.37799 0.242914 10.1166 0.19494 12.0018 0.199518C13.8836 0.195489 15.6213 0.242914 17.3117 0.345636C18.8615 0.439935 20.2762 0.975519 21.403 1.89434C22.4905 2.78094 23.2328 3.97973 23.6098 5.45703C23.9379 6.74316 23.9553 8.00585 23.972 9.2268C23.9841 10.103 23.9967 11.1412 23.9991 12.197V12.2013C23.9967 13.2571 23.9841 14.2953 23.972 15.1715C23.9553 16.3924 23.9381 17.655 23.6098 18.9413C23.2328 20.4186 22.4905 21.6174 21.403 22.504C20.2762 23.4228 18.8615 23.9584 17.3117 24.0527C15.6929 24.1512 14.0299 24.1992 12.2362 24.1992V24.1992ZM11.9973 22.3238C13.8479 22.3282 15.5471 22.2815 17.1978 22.1811C18.3697 22.1099 19.3857 21.7296 20.2181 21.0508C20.9875 20.4233 21.5175 19.5576 21.793 18.4777C22.0662 17.407 22.082 16.2575 22.0972 15.1459C22.1091 14.2756 22.1215 13.2447 22.1241 12.1992C22.1215 11.1534 22.1091 10.1227 22.0972 9.25244C22.082 8.1408 22.0662 6.99127 21.793 5.92046C21.5175 4.84051 20.9875 3.97479 20.2181 3.34728C19.3857 2.6687 18.3697 2.28838 17.1978 2.21716C15.5471 2.11663 13.8479 2.07031 12.0016 2.07433C10.1514 2.06994 8.45197 2.11663 6.80127 2.21716C5.62939 2.28838 4.61334 2.6687 3.78094 3.34728C3.01154 3.97479 2.48163 4.84051 2.20605 5.92046C1.93286 6.99127 1.91711 8.14062 1.90192 9.25244C1.89001 10.1235 1.87756 11.1549 1.875 12.2013C1.87756 13.2432 1.89001 14.2748 1.90192 15.1459C1.91711 16.2575 1.93286 17.407 2.20605 18.4777C2.48163 19.5576 3.01154 20.4233 3.78094 21.0508C4.61334 21.7294 5.62939 22.1097 6.80127 22.181C8.45197 22.2815 10.1517 22.3284 11.9973 22.3238V22.3238ZM11.9526 18.0585C8.72186 18.0585 6.0932 15.43 6.0932 12.1992C6.0932 8.96826 8.72186 6.33978 11.9526 6.33978C15.1835 6.33978 17.812 8.96826 17.812 12.1992C17.812 15.43 15.1835 18.0585 11.9526 18.0585V18.0585ZM11.9526 8.21478C9.75568 8.21478 7.9682 10.0023 7.9682 12.1992C7.9682 14.3961 9.75568 16.1835 11.9526 16.1835C14.1497 16.1835 15.937 14.3961 15.937 12.1992C15.937 10.0023 14.1497 8.21478 11.9526 8.21478V8.21478ZM18.4682 4.46478C17.6917 4.46478 17.062 5.09429 17.062 5.87103C17.062 6.64776 17.6917 7.27728 18.4682 7.27728C19.2449 7.27728 19.8745 6.64776 19.8745 5.87103C19.8745 5.09429 19.2449 4.46478 18.4682 4.46478Z" fill="white"/>
</svg>
