<svg width="40" height="40" viewBox="0 0 40 40" fill="none" xmlns="http://www.w3.org/2000/svg">
<rect width="40" height="40" rx="20" fill="#003FFF"/>
<path d="M13.15 17.3813C14.9589 17.3813 16.0399 18.2911 17.3243 19.9501C17.624 19.5648 17.9343 19.1474 18.2661 18.6871C18.7906 17.97 19.3472 17.1994 19.9893 16.4609C18.4267 14.6628 16.361 13.1001 13.15 13.1001C9.37185 13.1001 6.30005 16.1719 6.30005 19.9501H10.5813C10.5813 18.5373 11.7372 17.3813 13.15 17.3813Z" fill="url(#paint0_linear)"/>
<path d="M29.4187 19.9497C29.4187 21.3625 28.2628 22.5184 26.85 22.5184C25.0412 22.5184 23.9602 21.6086 22.6758 19.9497C22.3761 20.3243 22.0657 20.7524 21.7339 21.2019C21.2095 21.919 20.6422 22.7004 20 23.4282C21.5734 25.2263 23.6391 26.7889 26.85 26.7889C30.6282 26.7889 33.7 23.7172 33.7 19.939H29.4187V19.9497Z" fill="url(#paint1_linear)"/>
<path d="M13.15 26.8001C9.37185 26.8001 6.30005 23.7283 6.30005 19.9501H10.5813C10.5813 21.3629 11.7372 22.5188 13.15 22.5188C15.3763 22.5188 16.4894 21.1381 18.2661 18.6871C20.075 16.1933 22.3333 13.1001 26.8393 13.1001C30.6175 13.1001 33.6893 16.1719 33.6893 19.9501H29.4081C29.4081 18.5373 28.2522 17.3813 26.8393 17.3813C24.6131 17.3813 23.5 18.7621 21.7233 21.2024C19.9144 23.6962 17.6668 26.8001 13.15 26.8001Z" fill="url(#paint2_linear)"/>
<defs>
<linearGradient id="paint0_linear" x1="6.30005" y1="16.5251" x2="19.9999" y2="16.5251" gradientUnits="userSpaceOnUse">
<stop offset="0.2862" stop-color="white" stop-opacity="0.88"/>
<stop offset="1" stop-color="white" stop-opacity="0.8"/>
</linearGradient>
<linearGradient id="paint1_linear" x1="19.9998" y1="23.3746" x2="33.7" y2="23.3746" gradientUnits="userSpaceOnUse">
<stop stop-color="white" stop-opacity="0.8"/>
<stop offset="0.6883" stop-color="white"/>
</linearGradient>
<linearGradient id="paint2_linear" x1="6.30005" y1="19.9501" x2="33.7" y2="19.9501" gradientUnits="userSpaceOnUse">
<stop offset="0.16" stop-color="white" stop-opacity="0.88"/>
<stop offset="0.84" stop-color="white"/>
</linearGradient>
</defs>
</svg>
