<svg width="25" height="22" viewBox="0 0 25 22" fill="none" xmlns="http://www.w3.org/2000/svg">
<path d="M9.22975 14.0965C10.1291 14.0965 10.8582 13.3674 10.8582 12.468C10.8582 11.5687 10.1291 10.8396 9.22975 10.8396C8.33039 10.8396 7.60132 11.5687 7.60132 12.468C7.60132 13.3674 8.33039 14.0965 9.22975 14.0965Z" fill="white"/>
<path d="M16.5188 14.0965C17.4182 14.0965 18.1472 13.3674 18.1472 12.468C18.1472 11.5687 17.4182 10.8396 16.5188 10.8396C15.6195 10.8396 14.8904 11.5687 14.8904 12.468C14.8904 13.3674 15.6195 14.0965 16.5188 14.0965Z" fill="white"/>
<path d="M12.8744 18.4C14.6579 18.4 15.9374 17.9735 16.7516 17.1981C16.9067 17.043 16.9067 16.694 16.7516 16.5389C16.5965 16.3838 16.2476 16.3838 16.0925 16.5389C15.5109 17.1981 14.4253 17.4695 12.8744 17.4695C11.3235 17.4695 10.2767 17.1593 9.6563 16.5389C9.50122 16.3838 9.15226 16.3838 8.99718 16.5389C8.84209 16.694 8.84209 17.043 8.99718 17.1981C9.81139 18.0123 11.0909 18.4 12.8744 18.4Z" fill="white"/>
<path d="M18.1862 19.9897C18.9617 19.6795 19.6983 19.3306 20.3575 18.9041C22.4124 17.5471 23.5755 15.686 23.5755 13.7861C23.5755 13.5147 23.5368 13.2433 23.5368 13.0107C24.3122 12.5067 24.8938 11.6537 24.8938 10.6844C24.8938 9.17225 23.6531 7.97031 22.1797 7.97031C21.5206 7.97031 20.8227 8.24172 20.3962 8.62944C18.5352 7.4275 16.1701 6.76838 13.6111 6.69083L15.0069 2.23203L18.8066 3.16256C18.8066 4.40327 19.8534 5.41135 21.0553 5.41135C22.2573 5.41135 23.3041 4.3645 23.3041 3.16256C23.3041 1.96062 22.2185 0.875 21.0166 0.875C20.086 0.875 19.2718 1.41781 18.9617 2.23203L14.7355 1.34027C14.5028 1.26272 14.2314 1.37904 14.1927 1.65044L12.5642 6.76838C9.85018 6.80715 7.32999 7.54382 5.39138 8.70699C4.88734 8.28049 4.26698 8.04786 3.60785 8.04786C2.09574 8.04786 0.893799 9.28857 0.893799 10.7619C0.893799 11.7312 1.43661 12.623 2.25083 13.0882C2.21205 13.3597 2.21205 13.6311 2.21205 13.8637C2.21205 15.8023 3.33645 17.6246 5.43015 18.9816C6.08928 19.4081 6.78718 19.7571 7.60139 20.0672C7.56262 19.9897 13.1846 22.316 18.1862 19.9897ZM21.0166 1.76676C21.7145 1.76676 22.3736 2.34834 22.3736 3.12379C22.3736 3.82169 21.792 4.48082 21.0166 4.48082C20.3187 4.48082 19.6596 3.89923 19.6596 3.12379C19.6596 2.34834 20.2799 1.76676 21.0166 1.76676ZM1.82433 10.6844C1.82433 9.71506 2.59978 8.90085 3.60785 8.90085C3.99558 8.90085 4.3833 9.01716 4.6547 9.21103C3.60785 10.0252 2.87118 10.9945 2.48346 12.0802C2.05697 11.7312 1.82433 11.2272 1.82433 10.6844ZM12.8744 20.0285C7.48508 20.0285 3.10382 17.1981 3.10382 13.8249C3.10382 10.4517 7.48508 7.58259 12.8744 7.58259C18.2638 7.58259 22.645 10.413 22.645 13.7861C22.645 17.1593 18.2638 20.0285 12.8744 20.0285ZM23.3041 12.0414C22.9164 10.9945 22.1797 10.0252 21.1329 9.17225C21.4431 8.93962 21.792 8.86208 22.1797 8.86208C23.149 8.86208 23.9633 9.63752 23.9633 10.6456C23.9245 11.2272 23.6919 11.7312 23.3041 12.0414Z" fill="white"/>
</svg>
