<svg width="60" height="60" viewBox="0 0 60 60" fill="none" xmlns="http://www.w3.org/2000/svg">
<path fill-rule="evenodd" clip-rule="evenodd" d="M30 12.6001C22.2667 12.6001 17.4333 16.4668 15.5 24.2001C18.4 20.3334 21.7833 18.8834 25.65 19.8501C27.8561 20.4011 29.4329 22.0025 31.1783 23.7737C34.0213 26.6597 37.3123 30.0001 44.5 30.0001C52.2333 30.0001 57.0667 26.1334 59 18.4001C56.1 22.2668 52.7167 23.7168 48.85 22.7501C46.6438 22.1991 45.0671 20.5977 43.3217 18.8265C40.4787 15.9405 37.1877 12.6001 30 12.6001ZM15.5 30.0001C7.76667 30.0001 2.93333 33.8668 1 41.6001C3.9 37.7334 7.28333 36.2834 11.15 37.2501C13.3561 37.8022 14.9329 39.4025 16.6783 41.1737C19.5213 44.0597 22.8123 47.4001 30 47.4001C37.7333 47.4001 42.5667 43.5334 44.5 35.8001C41.6 39.6668 38.2167 41.1168 34.35 40.1501C32.1438 39.5991 30.5671 37.9977 28.8217 36.2265C25.9787 33.3405 22.6877 30.0001 15.5 30.0001Z" fill="#38BDF8"/>
</svg>
