<svg xmlns="http://www.w3.org/2000/svg" width="31" height="19" viewBox="0 0 31 19" fill="none">
<path d="M15.5 0C11.3667 0 8.78333 2.06667 7.75 6.2C9.3 4.13333 11.1083 3.35833 13.175 3.875C14.3541 4.16979 15.1969 5.02521 16.1298 5.97215C17.6495 7.51469 19.4084 9.3 23.25 9.3C27.3833 9.3 29.9667 7.23333 31 3.1C29.45 5.16667 27.6417 5.94167 25.575 5.425C24.3959 5.13021 23.5531 4.27479 22.6202 3.32785C21.1005 1.78531 19.3416 0 15.5 0ZM7.75 9.3C3.61667 9.3 1.03333 11.3667 0 15.5C1.55 13.4333 3.35833 12.6583 5.425 13.175C6.60415 13.4698 7.44695 14.3252 8.37982 15.2722C9.89951 16.8147 11.6584 18.6 15.5 18.6C19.6333 18.6 22.2167 16.5333 23.25 12.4C21.7 14.4667 19.8917 15.2417 17.825 14.725C16.6459 14.4302 15.8031 13.5748 14.8702 12.6279C13.3505 11.0853 11.5916 9.3 7.75 9.3Z" fill="url(#paint0_linear)"/>
<defs>
<linearGradient id="paint0_linear" x1="-0.861111" y1="5.952" x2="25.9125" y2="21.389" gradientUnits="userSpaceOnUse">
<stop stop-color="#2298BD"/>
<stop offset="1" stop-color="#0ED7B5"/>
</linearGradient>
</defs>
</svg>